<?xml version="1.0" standalone="no"?>
<!DOCTYPE svg PUBLIC "-//W3C//DTD SVG 20010904//EN"
 "http://www.w3.org/TR/2001/REC-SVG-20010904/DTD/svg10.dtd">
<svg version="1.0" xmlns="http://www.w3.org/2000/svg"
 width="512.000000pt" height="512.000000pt" viewBox="0 0 512.000000 512.000000"
 preserveAspectRatio="xMidYMid meet">
<metadata>
Created by potrace 1.14, written by Peter Selinger 2001-2017
</metadata>
<g transform="translate(0.000000,512.000000) scale(0.100000,-0.100000)"
fill="#000000" stroke="none">
<path d="M325 5108 c-11 -6 -28 -20 -37 -31 -17 -19 -18 -157 -18 -2508 0
-1773 3 -2495 11 -2512 6 -13 23 -31 39 -40 26 -16 194 -17 2240 -17 2046 0
2214 1 2240 17 16 9 33 27 39 40 8 17 11 742 11 2504 0 2297 -1 2483 -17 2509
-9 16 -27 33 -40 39 -35 16 -1796 15 -1826 -1 -36 -19 -49 -37 -54 -73 -5 -41
19 -88 54 -104 17 -8 278 -11 853 -11 l830 0 0 -2360 0 -2360 -2090 0 -2090 0
0 2360 0 2360 831 0 c757 0 833 1 859 17 30 17 50 51 50 84 0 30 -30 76 -57
88 -35 16 -1800 15 -1828 -1z"/>
<path d="M2502 5100 c-43 -36 -53 -83 -25 -130 38 -66 128 -66 166 0 10 15 17
37 17 49 0 76 -100 128 -158 81z"/>
<path d="M974 4709 c-11 -6 -28 -25 -37 -42 -14 -27 -16 -65 -14 -260 l2 -229
33 -29 c29 -26 40 -29 96 -29 l64 0 0 -1560 0 -1560 -119 0 c-202 0 -200 2
-201 -293 0 -133 4 -233 11 -249 22 -58 20 -58 606 -58 597 0 594 0 614 63 5
18 10 126 10 242 0 295 -1 295 -199 295 l-120 0 0 48 c-1 26 -1 578 -1 1226
l-1 1179 334 334 333 333 427 0 428 0 1 -32 c0 -45 0 -276 0 -314 -1 -19 -6
-31 -15 -31 -31 0 -131 -61 -180 -109 -115 -115 -152 -276 -100 -430 20 -60
78 -150 110 -171 13 -8 24 -19 24 -23 0 -5 -74 -45 -164 -90 -103 -51 -168
-90 -175 -103 -32 -64 -8 -129 54 -146 44 -12 35 -15 263 97 181 89 182 90
182 63 1 -14 1 -213 1 -441 l-1 -414 -249 -251 c-138 -137 -254 -261 -259
-275 -23 -64 30 -131 99 -126 39 3 53 16 275 237 l234 234 227 -227 c126 -124
238 -231 250 -237 12 -6 31 -11 43 -11 29 0 79 37 90 66 22 57 7 77 -255 339
l-253 253 0 436 c0 262 3 436 9 436 5 0 91 -41 190 -91 100 -50 193 -92 208
-93 70 -7 119 58 102 135 -5 23 -56 55 -193 124 l-157 78 45 51 c86 95 121
198 110 325 -14 168 -133 314 -297 364 -15 5 -17 28 -17 191 l-1 186 406 0
c390 0 406 1 433 20 16 12 31 34 35 52 4 18 7 128 7 244 0 230 -4 248 -58 272
-33 16 -3258 16 -3290 1z m3147 -224 c1 -19 1 -44 1 -55 0 -11 0 -40 -1 -65
l-1 -45 -1499 0 -1498 0 -1 100 -1 100 1499 0 1500 0 1 -35z m-2603 -1925 l0
-1560 -99 0 -99 0 -1 48 c0 60 0 3008 0 3045 l1 27 99 0 99 0 0 -1560z m396
1371 c-104 -105 -190 -188 -192 -187 -2 3 -4 233 -3 344 l1 32 191 0 192 0
-189 -189z m1539 -404 c131 -77 143 -263 24 -357 -136 -107 -332 -27 -352 145
-22 178 172 303 328 212z m-1615 -2827 l1 -100 -419 0 -420 0 -1 55 c-1 30 -1
64 -1 75 0 11 0 31 1 45 l1 25 419 0 418 0 1 -100z"/>
</g>
</svg>
